<svg width="20" height="20" viewBox="0 0 20 20" fill="none" xmlns="http://www.w3.org/2000/svg">
<path d="M6.7816 6.60267L7.81882 3.49098C8.03702 2.83634 8.96303 2.83634 9.18123 3.49098L10.2184 6.60267C10.7187 8.10351 11.8965 9.28131 13.3973 9.78161L16.509 10.8188C17.1637 11.037 17.1637 11.963 16.509 12.1812L13.3973 13.2184C11.8965 13.7187 10.7187 14.8965 10.2184 16.3973L9.18123 19.509C8.96303 20.1637 8.03702 20.1637 7.81882 19.509L6.7816 16.3973C6.2813 14.8965 5.10355 13.7187 3.60267 13.2184L0.490981 12.1812C-0.16366 11.963 -0.16366 11.037 0.490981 10.8188L3.60267 9.78161C5.10355 9.28131 6.2813 8.10351 6.7816 6.60267Z" fill="#000"/>
<path d="M15.1913 1.69538L15.6794 0.231053C15.7821 -0.0770176 16.2179 -0.0770176 16.3206 0.231053L16.8087 1.69538C17.0441 2.40168 17.5983 2.95591 18.3046 3.19134L19.769 3.67945C20.077 3.78214 20.077 4.21788 19.769 4.32057L18.3046 4.80868C17.5983 5.04411 17.0441 5.59834 16.8087 6.30464L16.3206 7.76897C16.2179 8.07702 15.7821 8.07702 15.6794 7.76897L15.1913 6.30464C14.9559 5.59834 14.4017 5.04411 13.6954 4.80868L12.231 4.32057C11.923 4.21788 11.923 3.78214 12.231 3.67945L13.6954 3.19134C14.4017 2.95591 14.9559 2.40168 15.1913 1.69538Z" fill="#000"/>
</svg>
