<svg width="80" height="80" viewBox="0 0 80 80" fill="none" xmlns="http://www.w3.org/2000/svg">
    <rect width="80" height="80" rx="16" fill="#C3FF76"/>
    <path d="M21.475 41.1152L35.288 53.6336C35.5597 53.8785 35.8979 54 36.2361 54C36.6275 54 37.0151 53.838 37.2982 53.5198L58.6352 29.4107C58.8803 29.1349 59 28.7916 59 28.4464C59 27.6384 58.3578 27 57.5769 27C57.1855 27 56.796 27.162 56.5148 27.4802L36.1259 50.517L23.375 38.9571C23.1014 38.7122 22.7632 38.5907 22.425 38.5907C21.6327 38.5907 21 39.2387 21 40.0352C21 40.4325 21.1596 40.8298 21.475 41.1152Z" fill="black"/>
</svg>
