<svg width="70" height="71" viewBox="0 0 70 71" fill="none" xmlns="http://www.w3.org/2000/svg">
<rect y="0.282471" width="70" height="70" rx="16" fill="#C3FF76"/>
<path d="M26.5079 29.726C28.2729 26.89 31.4189 25 35.0029 25C40.5209 25 44.9999 29.48 44.9999 34.997C44.9999 40.516 40.5209 44.996 35.0029 44.996C29.7579 44.996 25.4499 40.948 25.0369 35.808C25.0129 35.506 25.2259 34.997 25.7859 34.997C26.1769 34.997 26.5009 35.297 26.5329 35.687C26.8839 40.056 30.5449 43.496 35.0029 43.496C39.6929 43.496 43.4999 39.688 43.4999 34.997C43.4999 30.308 39.6929 26.5 35.0029 26.5C31.9659 26.5 29.2989 28.097 27.7969 30.495L29.7879 30.5C30.2019 30.5 30.5379 30.836 30.5379 31.25C30.5379 31.664 30.2019 32 29.7879 32H25.7549C25.3409 32 25.0049 31.664 25.0049 31.25V27.201C25.0049 26.787 25.3409 26.451 25.7549 26.451C26.1689 26.451 26.5049 26.786 26.5049 27.201L26.5079 29.726Z" fill="black"/>
</svg>
