<svg width="24" height="23" viewBox="0 0 24 23" fill="none" xmlns="http://www.w3.org/2000/svg">
    <g clip-path="url(#clip0_18_1079)">
    <path fill-rule="evenodd" clip-rule="evenodd" d="M18.4992 0.0148926C17.009 0.0148926 14.8067 6.71835 14.0392 13.4141H16.4003V21.5494C16.4003 22.4405 17.1516 22.985 17.8359 22.985C18.6284 22.985 19.2725 22.3419 19.2725 21.5494C19.2744 16.7285 19.2811 2.16452 19.2716 0.829376C19.2687 0.356574 18.927 0.0148926 18.4992 0.0148926ZM18.3164 1.29069L18.3154 21.5494C18.3154 21.8136 18.1001 22.028 17.8359 22.028C17.6857 22.028 17.3574 21.9074 17.3574 21.5494V12.459H15.1235C15.8892 6.82267 17.4177 2.55501 18.3164 1.29069ZM10.2357 0.0148926H9.38674L10.0328 5.75934L8.74932 5.75743L8.74645 0.0148926H7.78936L7.79031 5.75743H6.83035L6.83227 0.0148926H5.87518L5.87039 5.75743H4.63479L5.20617 0.0168068L4.33618 0.0148926C4.33618 0.0148926 3.7514 4.83671 3.51021 7.26485C3.42599 8.1157 3.88443 8.95124 4.55344 9.48721C5.45597 10.2108 5.87709 10.4271 5.87709 11.0884V21.5494C5.87709 22.3419 6.51451 22.985 7.30985 22.985C8.10615 22.985 8.74932 22.3419 8.74932 21.5494V11.0932C8.74932 10.4213 9.16374 10.2146 10.072 9.49582C10.7544 8.95602 11.2397 8.10421 11.1449 7.24092C10.8817 4.80513 10.2357 0.0148926 10.2357 0.0148926ZM10.1237 6.71452C10.1964 7.34428 10.3821 8.03052 9.47862 8.74546C8.56938 9.46615 7.79223 9.90928 7.79223 11.0932V21.5494C7.79223 21.8136 7.57593 22.028 7.30985 22.028C7.04283 22.028 6.83418 21.8136 6.83418 21.5494V11.0884C6.83418 9.91886 6.05032 9.46232 5.15257 8.74068C4.28067 8.042 4.46443 7.32897 4.52855 6.71452H10.1237Z" fill="white"/>
    </g>
    <defs>
    <clipPath id="clip0_18_1079">
    <rect width="22.9701" height="22.9701" fill="white" transform="translate(0.134521 0.0148926)"/>
    </clipPath>
    </defs>
</svg>
