<svg width="32" height="31" viewBox="0 0 32 31" fill="none" xmlns="http://www.w3.org/2000/svg">
<rect x="0.5" y="0.5" width="31" height="30" rx="5.5" stroke="black"/>
<path d="M22.457 17.8108C22.601 17.993 22.6663 18.1983 22.6663 18.3998C22.6663 18.9023 22.2583 19.375 21.6677 19.375H10.333C9.73967 19.375 9.33301 18.901 9.33301 18.3998C9.33301 18.197 9.39967 17.9917 9.54501 17.8095C11.149 15.8023 13.881 12.3858 15.2223 10.708C15.4117 10.4703 15.7023 10.3334 16.0117 10.3334C16.3183 10.3334 16.6103 10.4716 16.7997 10.7092L22.457 17.8108ZM12.3717 17.4375H19.633L16.009 12.8883L12.3717 17.4375Z" fill="black"/>
</svg>
