<svg width="29" height="29" viewBox="0 0 29 29" fill="none" xmlns="http://www.w3.org/2000/svg">
<path d="M26.5832 9.66663C26.5832 9.08904 26.1252 8.45829 25.3748 8.45829H9.6665C8.91734 8.45829 8.45817 9.08542 8.45817 9.66663V25.375C8.45817 26.1253 9.0865 26.5833 9.6665 26.5833H25.3748C25.9524 26.5833 26.5832 26.1253 26.5832 25.375V9.66663ZM10.2707 10.2708H24.7707V24.7708H10.2707V10.2708ZM7.24984 7.24996H23.2603C23.7605 7.24996 24.1665 6.84396 24.1665 6.34371C24.1665 5.84346 23.7605 5.43746 23.2603 5.43746H6.64567C6.00525 5.43746 5.43734 6.00538 5.43734 6.64579V23.2604C5.43734 23.7606 5.84334 24.1666 6.34359 24.1666C6.84384 24.1666 7.24984 23.7606 7.24984 23.2604V7.24996ZM4.229 4.22913H20.8436C21.3438 4.22913 21.7498 3.82313 21.7498 3.32288C21.7498 2.82263 21.3438 2.41663 20.8436 2.41663H3.62484C2.98442 2.41663 2.4165 2.98454 2.4165 3.62496V20.8437C2.4165 21.344 2.8225 21.75 3.32275 21.75C3.823 21.75 4.229 21.344 4.229 20.8437V4.22913Z" fill="white"/>
<g clip-path="url(#clip0_564_4163)">
<path fill-rule="evenodd" clip-rule="evenodd" d="M17.8718 17.0529L21.6738 17.0054C21.7708 17.0042 21.8597 17.043 21.9243 17.106C22.0603 17.2386 22.0704 17.4612 21.9309 17.6042C21.8675 17.6692 21.7799 17.7098 21.6825 17.7114L17.8805 17.7582L17.9277 21.5598C17.9289 21.6576 17.8904 21.7461 17.8274 21.8107C17.6872 21.9544 17.4638 21.9485 17.3288 21.8169C17.2642 21.7539 17.2233 21.666 17.2221 21.5689L17.1749 17.7673L13.3733 17.8144C13.2762 17.8156 13.1873 17.7768 13.1227 17.7138C12.9878 17.5822 12.9763 17.3589 13.1165 17.2152C13.1795 17.1506 13.2671 17.11 13.3648 17.1088L17.1665 17.0616L17.119 13.2596C17.1181 13.1623 17.1566 13.0737 17.22 13.0087C17.3595 12.8657 17.5822 12.8703 17.7182 13.0029C17.7828 13.0659 17.8238 13.1538 17.825 13.2509L17.8718 17.0529Z" fill="white"/>
</g>
<defs>
<clipPath id="clip0_564_4163">
<rect width="11.2819" height="11.2819" fill="white" transform="translate(17.4219 9.43604) rotate(44.2896)"/>
</clipPath>
</defs>
</svg>
