<svg width="19" height="19" viewBox="0 0 19 19" fill="none" xmlns="http://www.w3.org/2000/svg">
    <circle cx="9.5" cy="9.5" r="9" stroke="black"/>
    <g clip-path="url(#clip0_0_1)">
    <path d="M9.5 5.75C10.5339 5.75 11.375 6.59113 11.375 7.62538C11.375 8.65887 10.5339 9.50038 9.5 9.50038C8.46613 9.50038 7.625 8.65887 7.625 7.62538C7.625 6.59113 8.46613 5.75 9.5 5.75ZM9.5 5C8.05025 5 6.875 6.17525 6.875 7.62538C6.875 9.07475 8.05025 10.2504 9.5 10.2504C10.9497 10.2504 12.125 9.07475 12.125 7.62538C12.125 6.17525 10.9497 5 9.5 5ZM11.8884 10.0074C11.702 10.1941 11.492 10.3565 11.2666 10.4956C12.3436 11.1984 12.9084 12.4017 13.1311 13.2504H5.861C6.0755 12.3916 6.63275 11.1867 7.72587 10.4911C7.49975 10.3509 7.29013 10.187 7.10413 9.99913C5.50738 11.1511 5 13.1889 5 14H14C14 13.1967 13.46 11.1661 11.8884 10.0074Z" fill="black"/>
    </g>
    <defs>
    <clipPath id="clip0_0_1">
    <rect width="9" height="9" fill="white" transform="translate(5 5)"/>
    </clipPath>
    </defs>
</svg>
