<svg width="28" height="28" viewBox="0 0 28 28" fill="none" xmlns="http://www.w3.org/2000/svg">
    <path d="M18.6313 19.8695C16.9058 21.3139 14.6833 22.1854 12.2602 22.1854C6.78034 22.1854 2.33301 17.738 2.33301 12.2594C2.33301 6.78071 6.78034 2.33337 12.2602 2.33337C17.7377 2.33337 22.1862 6.78071 22.1862 12.2594C22.1862 14.6837 21.3147 16.9074 19.8703 18.6305L25.4108 24.1722C25.5812 24.3425 25.6663 24.5665 25.6663 24.7917C25.6663 25.4765 25.0398 25.6667 24.7913 25.6667C24.5673 25.6667 24.3433 25.5815 24.1718 25.41L18.6313 19.8695ZM12.2602 4.08454C7.74751 4.08454 4.08534 7.74787 4.08534 12.2594C4.08534 16.7709 7.74751 20.4342 12.2602 20.4342C16.7705 20.4342 20.435 16.7709 20.435 12.2594C20.435 7.74787 16.7705 4.08454 12.2602 4.08454Z" fill="black"/>
</svg>
