<svg width="18" height="18" viewBox="0 0 18 18" fill="none" xmlns="http://www.w3.org/2000/svg">
<path d="M18 1C18 0.522 17.621 0 17 0H1C0.38 0 0 0.519 0 1V17C0 17.621 0.52 18 1 18H17C17.478 18 18 17.621 18 17V1ZM8.25 8.252V4.752C8.25 4.338 8.586 4.002 9 4.002C9.414 4.002 9.75 4.338 9.75 4.752V8.252H13.25C13.664 8.252 14 8.588 14 9.002C14 9.416 13.664 9.752 13.25 9.752H9.75V13.252C9.75 13.666 9.414 14.002 9 14.002C8.586 14.002 8.25 13.666 8.25 13.252V9.752H4.75C4.336 9.752 4 9.416 4 9.002C4 8.588 4.336 8.252 4.75 8.252H8.25Z" fill="black"/>
</svg>
