<svg width="22" height="22" viewBox="0 0 22 22" fill="none" xmlns="http://www.w3.org/2000/svg">
<path d="M22 1.22222C22 0.638 21.5368 0 20.7778 0H1.22222C0.464444 0 0 0.634333 0 1.22222V20.7778C0 21.5368 0.635556 22 1.22222 22H20.7778C21.362 22 22 21.5368 22 20.7778V1.22222ZM1.83333 1.83333H20.1667V20.1667H1.83333V1.83333ZM4.82656 11.4669L9.53333 15.6591C9.70689 15.8156 9.92567 15.8913 10.1432 15.8913C10.3901 15.8913 10.6382 15.7923 10.8179 15.5956L18.0938 7.64011C18.2539 7.46533 18.3333 7.24533 18.3333 7.02656C18.3333 6.52544 17.9288 6.11355 17.4191 6.11355C17.1698 6.11355 16.9241 6.21378 16.742 6.41055L10.0772 13.6974L6.04633 10.1066C5.87033 9.95133 5.654 9.87433 5.43644 9.87433C4.92922 9.87433 4.52222 10.2838 4.52222 10.7861C4.52222 11.0367 4.62489 11.286 4.82656 11.4669Z" fill="white"/>
</svg>
