<svg width="37" height="37" viewBox="0 0 37 37" fill="#000" xmlns="http://www.w3.org/2000/svg">
    <g clip-path="url(#clip0_614_811)">
    <path d="M20.0002 18.4615L18.9418 12.3077H18.0048L16.9233 18.4615C16.0064 18.9954 15.3848 19.9754 15.3848 21.1123C15.3848 22.8108 16.7633 24.1892 18.4618 24.1892C20.1602 24.1892 21.5387 22.8108 21.5387 21.1123C21.5387 19.9754 20.9171 18.9954 20.0002 18.4615ZM18.4618 6.15385C9.96638 6.15385 3.07715 13.0415 3.07715 21.5385C3.07715 30.0354 9.96638 36.9231 18.4618 36.9231C26.9571 36.9231 33.8464 30.0354 33.8464 21.5385C33.8464 13.0415 26.9571 6.15385 18.4618 6.15385ZM18.4618 33.8462C11.6756 33.8462 6.15407 28.3246 6.15407 21.5385C6.15407 14.7523 11.6756 9.23077 18.4618 9.23077C25.2479 9.23077 30.7695 14.7523 30.7695 21.5385C30.7695 28.3246 25.2479 33.8462 18.4618 33.8462ZM15.3848 3.35538V0H21.5387V3.35538C19.3264 2.98154 17.551 2.98923 15.3848 3.35538ZM29.5064 6.78L31.671 4.61538L33.8464 6.79077L31.8141 8.82308C31.1033 8.07846 30.331 7.39846 29.5064 6.78ZM10.0002 21.5385C10.0002 21.9631 9.65561 22.3077 9.23099 22.3077C8.80638 22.3077 8.46176 21.9631 8.46176 21.5385C8.46176 21.1138 8.80638 20.7692 9.23099 20.7692C9.65561 20.7692 10.0002 21.1138 10.0002 21.5385ZM28.4618 21.5385C28.4618 21.9631 28.1171 22.3077 27.6925 22.3077C27.2679 22.3077 26.9233 21.9631 26.9233 21.5385C26.9233 21.1138 27.2679 20.7692 27.6925 20.7692C28.1171 20.7692 28.4618 21.1138 28.4618 21.5385ZM19.231 30.7692C19.231 31.1938 18.8864 31.5385 18.4618 31.5385C18.0371 31.5385 17.6925 31.1938 17.6925 30.7692C17.6925 30.3446 18.0371 30 18.4618 30C18.8864 30 19.231 30.3446 19.231 30.7692ZM13.0771 27.6923C13.0771 28.1169 12.7325 28.4615 12.3079 28.4615C11.8833 28.4615 11.5387 28.1169 11.5387 27.6923C11.5387 27.2677 11.8833 26.9231 12.3079 26.9231C12.7325 26.9231 13.0771 27.2677 13.0771 27.6923ZM25.3848 27.6923C25.3848 28.1169 25.0402 28.4615 24.6156 28.4615C24.191 28.4615 23.8464 28.1169 23.8464 27.6923C23.8464 27.2677 24.191 26.9231 24.6156 26.9231C25.0402 26.9231 25.3848 27.2677 25.3848 27.6923ZM13.0771 13.8462C13.0771 14.2708 12.7325 14.6154 12.3079 14.6154C11.8833 14.6154 11.5387 14.2708 11.5387 13.8462C11.5387 13.4215 11.8833 13.0769 12.3079 13.0769C12.7325 13.0769 13.0771 13.4215 13.0771 13.8462ZM25.3848 13.8462C25.3848 14.2708 25.0402 14.6154 24.6156 14.6154C24.191 14.6154 23.8464 14.2708 23.8464 13.8462C23.8464 13.4215 24.191 13.0769 24.6156 13.0769C25.0402 13.0769 25.3848 13.4215 25.3848 13.8462Z" fill="#000"/>
    </g>
    <defs>
    <clipPath id="clip0_614_811">
    <rect width="36.9231" height="36.9231" fill="#000"/>
    </clipPath>
    </defs>
</svg>
