<svg width="193" height="228" viewBox="0 0 193 228" fill="none" xmlns="http://www.w3.org/2000/svg">
    <path d="M176.167 75.5989C176.83 76.2619 177.699 76.5939 178.568 76.5939C179.438 76.5939 180.307 76.2624 180.97 75.5989L192.005 64.564C192.642 63.9272 193 63.063 193 62.1623C193 61.2616 192.642 60.3974 192.005 59.7606L174.245 42.0012C173.608 41.3639 172.744 41.0062 171.843 41.0062C170.943 41.0062 170.079 41.3639 169.442 42.0012L158.407 53.0361C157.081 54.3626 157.081 56.5138 158.407 57.8399L159.745 59.1772L154.832 64.0896C141.671 52.5839 125.265 44.7046 107.186 42.023V29.051H111.33C113.206 29.051 114.727 27.53 114.727 25.6543V3.39719C114.727 1.52104 113.206 0 111.33 0H75.509C73.6328 0 72.1122 1.52104 72.1122 3.39719V25.6538C72.1122 27.53 73.6333 29.0506 75.509 29.0506H79.6533V42.0221C34.6452 48.6981 0 87.59 0 134.424C0 185.936 41.9077 227.844 93.4192 227.844C144.931 227.844 186.838 185.936 186.838 134.424C186.838 114.08 180.297 95.2366 169.213 79.8785L174.83 74.2616L176.167 75.5989ZM171.843 49.2068L184.799 62.1623L178.568 68.3928L177.231 67.0556L166.949 56.7737L165.612 55.4364L171.843 49.2068ZM78.9048 22.2566V6.79394H78.9053H107.932V22.2566H103.788H83.0492H78.9048ZM100.391 29.0506V41.0057H86.4464V29.0506H100.391ZM180.044 134.424C180.044 182.19 141.184 221.05 93.4188 221.05C45.6534 221.05 6.79305 182.19 6.79305 134.424C6.79305 86.6595 45.6529 47.7992 93.4188 47.7992C141.184 47.7997 180.044 86.6595 180.044 134.424ZM165.534 73.9497L160.056 68.4716L164.548 63.9797L170.026 69.4573L165.534 73.9497Z" fill="#000"/>
    <path d="M93.419 54.9088C71.4302 54.9088 51.4983 63.882 37.0899 78.3572C36.8567 78.4978 36.6346 78.6642 36.4335 78.8654C36.2114 79.0874 36.0303 79.3331 35.8825 79.5934C22.2706 93.8702 13.9027 113.188 13.9027 134.425C13.9027 177.832 48.8643 213.22 92.1066 213.925C92.1543 213.927 92.2005 213.932 92.2486 213.932C92.2771 213.932 92.3047 213.928 92.3332 213.928C92.6949 213.932 93.0559 213.942 93.4194 213.942C137.265 213.942 172.935 178.271 172.935 134.426C172.935 90.5802 137.264 54.9088 93.419 54.9088ZM146.476 184.104L140.402 178.03C139.075 176.703 136.924 176.703 135.598 178.03C134.271 179.356 134.271 181.507 135.598 182.834L141.605 188.841C129.283 199.764 113.241 206.578 95.6453 207.11V197.583C95.6453 195.707 94.1243 194.186 92.2486 194.186C90.3725 194.186 88.8514 195.707 88.8514 197.583V207C71.5895 205.925 55.9422 198.802 44.0048 187.728L50.4165 181.316C51.7431 179.989 51.7431 177.839 50.4165 176.512C49.0904 175.185 46.9392 175.186 45.6126 176.512L39.2428 182.882C28.4763 170.857 21.6414 155.242 20.7883 138.077H29.8999C31.776 138.077 33.2971 136.556 33.2971 134.68C33.2971 132.804 31.776 131.283 29.8999 131.283H20.7687C21.5052 114.047 28.2694 98.3465 39.0029 86.2396L45.0092 92.2459C45.6723 92.9089 46.5418 93.2409 47.4109 93.2409C48.28 93.2409 49.1496 92.9094 49.8126 92.2459C51.1392 90.9193 51.1392 88.7681 49.8126 87.442L43.7401 81.3694C55.7094 70.1548 71.4614 62.9345 88.8505 61.8514V70.0057C88.8505 71.8819 90.3716 73.4029 92.2473 73.4029C94.1234 73.4029 95.6445 71.8819 95.6445 70.0057V61.741C113.37 62.2768 129.518 69.186 141.875 80.2498L135.856 86.2685C134.529 87.5951 134.529 89.7463 135.856 91.0724C136.519 91.7355 137.388 92.0674 138.258 92.0674C139.127 92.0674 139.996 91.7359 140.659 91.0724L146.719 85.0123C158.097 97.2767 165.306 113.459 166.067 131.285H157.481C155.604 131.285 154.084 132.806 154.084 134.681C154.084 136.558 155.606 138.077 157.481 138.077H166.049C165.167 155.83 157.887 171.924 146.476 184.104Z" fill="#000"/>
    <path d="M136.024 96.4563C135.13 95.5743 133.822 95.2565 132.622 95.6312L118.982 99.8926C118.451 100.058 117.97 100.352 117.579 100.747L105.106 113.367V94.3122C105.106 93.6634 104.92 93.0293 104.571 92.4824L95.4904 78.2808C94.866 77.3045 93.7873 76.7135 92.6281 76.7135C91.4688 76.7135 90.3906 77.304 89.7662 78.2808L80.6858 92.4824C80.3365 93.0293 80.1509 93.6634 80.1509 94.3122V137.734C80.1509 138.02 80.1643 138.302 80.183 138.583L66.7442 152.179C65.4252 153.513 65.4381 155.665 66.7722 156.983L76.3105 166.411C76.9727 167.065 77.8356 167.392 78.6984 167.392C79.5742 167.392 80.4504 167.055 81.1144 166.383L98.0954 149.202C98.2325 149.064 98.3518 148.914 98.4599 148.76C100.855 147.488 102.788 145.459 103.939 142.993C104.288 142.828 104.617 142.604 104.904 142.313L131.949 114.95C132.34 114.555 132.628 114.069 132.787 113.537L136.889 99.8477C137.25 98.6439 136.918 97.3396 136.024 96.4563ZM78.6704 159.191L73.9644 154.54L82.8851 145.514C84.2913 147.272 86.1612 148.644 88.3088 149.439L78.6704 159.191ZM98.3117 137.734C98.3117 140.868 95.7623 143.417 92.6285 143.417C89.4948 143.417 86.9453 140.868 86.9453 137.734V95.305L92.6285 86.4165L98.3117 95.305V137.734ZM126.522 110.777L105.105 132.445V123.032L121.816 106.125L128.546 104.022L126.522 110.777Z" fill="#000"/>
</svg>
