<svg width="80" height="80" viewBox="0 0 80 80" fill="none" xmlns="http://www.w3.org/2000/svg">
    <rect width="80" height="80" rx="16" fill="#246EC4"/>
    <path d="M49.1413 33.8987C50.3388 32.47 51 30.6775 51 28.8537V25H31V28.8537C31 30.6775 31.66 32.4688 32.8587 33.8975L36.7175 38.4975C37.425 39.3438 37.43 40.5288 36.7288 41.38L32.8163 46.1225C31.645 47.5425 31 49.3162 31 51.1162V55H51V51.1162C51 49.3162 50.3538 47.5438 49.1838 46.1238L45.2712 41.3812C44.5687 40.53 44.5737 39.345 45.2825 38.4987L49.1413 33.8987ZM48.5 28.7488C48.5 30.125 48.0462 31.3113 47.225 32.2913L46.0025 33.75H35.9975L34.775 32.2913C33.95 31.31 33.5 30.1213 33.5 28.7488H48.5ZM47.255 47.7137C48.07 48.7025 48.5 49.87 48.5 51.25H47.1737C44.75 48.75 41 48.75 41 48.75C41 48.75 37.25 48.75 34.8262 51.25H33.5C33.5 49.87 33.93 48.7012 34.745 47.7137L38.6562 42.9725C39.0838 42.4538 39.37 41.865 39.545 41.2513H39.75V42.5013H42.25V41.2513H42.4538C42.63 41.865 42.915 42.4537 43.3425 42.9712L47.255 47.7137ZM39.75 46.25H42.25V47.5H39.75V46.25ZM39.75 43.75H42.25V45H39.75V43.75Z" fill="black"/>
</svg>
