<svg width="39" height="39" viewBox="0 0 39 39" fill="none" xmlns="http://www.w3.org/2000/svg">
<path d="M19.1628 0C29.7371 0 38.3238 8.58667 38.3238 19.1609C38.3238 29.7371 29.7371 38.3237 19.1628 38.3237C8.58667 38.3237 0 29.7371 0 19.1609C0 8.58667 8.58667 0 19.1628 0ZM9.48558 19.9065L16.8667 26.4807C17.1388 26.726 17.4819 26.8448 17.8231 26.8448C18.2103 26.8448 18.5993 26.6896 18.8811 26.381L30.291 13.9054C30.5421 13.6313 30.6667 13.2863 30.6667 12.9433C30.6667 12.1574 30.0323 11.5115 29.233 11.5115C28.842 11.5115 28.4568 11.6687 28.1712 11.9773L17.7196 23.4044L11.3984 17.7733C11.1224 17.5298 10.7832 17.4091 10.442 17.4091C9.64658 17.4091 9.00833 18.0512 9.00833 18.8389C9.00833 19.2318 9.16933 19.6228 9.48558 19.9065Z" fill="#246EC4"/>
</svg>
