<svg width="24" height="24" viewBox="0 0 24 24" fill="none" xmlns="http://www.w3.org/2000/svg">
    <g clip-path="url(#clip0_543_4028)">
    <path fill-rule="evenodd" clip-rule="evenodd" d="M16.9829 2L18.3889 4.109C18.7599 4.666 19.3839 5 20.0529 5H23.9829V22H-0.0170898V5H5.91291C6.58191 5 7.20591 4.666 7.57691 4.109L8.98291 2H16.9829ZM20.0529 6C19.0469 6 18.1149 5.5 17.5569 4.663L16.4479 3H9.51791L8.40891 4.664C7.85191 5.5 6.91891 6 5.91291 6H0.98291V21H22.9829V6H20.0529ZM12.9999 7C16.3109 7 18.9999 9.689 18.9999 13C18.9999 16.311 16.3109 19 12.9999 19C9.68891 19 6.99991 16.311 6.99991 13C6.99991 9.689 9.68891 7 12.9999 7ZM12.9999 8C15.7599 8 17.9999 10.24 17.9999 13C17.9999 15.76 15.7599 18 12.9999 18C10.2399 18 7.99991 15.76 7.99991 13C7.99991 10.24 10.2399 8 12.9999 8ZM12.9999 10C14.6559 10 15.9999 11.344 15.9999 13C15.9999 14.656 14.6559 16 12.9999 16C11.3439 16 9.99991 14.656 9.99991 13C9.99991 11.344 11.3439 10 12.9999 10ZM12.9999 11C14.1039 11 14.9999 11.896 14.9999 13C14.9999 14.104 14.1039 15 12.9999 15C11.8959 15 10.9999 14.104 10.9999 13C10.9999 11.896 11.8959 11 12.9999 11ZM4.99991 9C4.99991 8.448 4.55291 8 3.99991 8C3.44691 8 2.99991 8.448 2.99991 9C2.99991 9.552 3.44691 10 3.99991 10C4.55291 10 4.99991 9.552 4.99991 9ZM1.99991 3H5.00091V4H1.99991V3Z" fill="white"/>
    </g>
    <defs>
    <clipPath id="clip0_543_4028">
    <rect width="24" height="24" fill="white"/>
    </clipPath>
    </defs>
</svg>
